<svg xmlns="http://www.w3.org/2000/svg" xmlns:xlink="http://www.w3.org/1999/xlink" width="39.353" height="53.965" viewBox="0 0 39.353 53.965">
  <defs>
    <filter id="fastright" x="0" y="0" width="39.353" height="53.965" filterUnits="userSpaceOnUse">
      <feOffset dy="3" input="SourceAlpha"/>
      <feGaussianBlur stdDeviation="3" result="blur"/>
      <feFlood flood-opacity="0.161"/>
      <feComposite operator="in" in2="blur"/>
      <feComposite in="SourceGraphic"/>
    </filter>
  </defs>
  <g transform="matrix(1, 0, 0, 1, 0, 0)" filter="url(#fastright)">
    <path id="fastright-2" data-name="fastright" d="M20.7,34.349a2.067,2.067,0,0,0,.667-1.563,2.18,2.18,0,0,0-.667-1.6L7.392,17.982,20.7,4.776a2.18,2.18,0,0,0,.667-1.6,2.18,2.18,0,0,0-.667-1.6L19.755.667a2.248,2.248,0,0,0-3.2,0L.684,16.4a2.067,2.067,0,0,0-.667,1.563,2.18,2.18,0,0,0,.667,1.6L16.559,35.3a2.248,2.248,0,0,0,3.2,0Z" transform="translate(8.98 6)" fill="#4a9c45"/>
  </g>
</svg>
