<svg xmlns="http://www.w3.org/2000/svg" xmlns:xlink="http://www.w3.org/1999/xlink" width="53.964" height="53.965" viewBox="0 0 53.964 53.965">
  <defs>
    <filter id="fastright" x="0" y="0" width="53.964" height="53.965" filterUnits="userSpaceOnUse">
      <feOffset dy="3" input="SourceAlpha"/>
      <feGaussianBlur stdDeviation="3" result="blur"/>
      <feFlood flood-opacity="0.161"/>
      <feComposite operator="in" in2="blur"/>
      <feComposite in="SourceGraphic"/>
    </filter>
  </defs>
  <g transform="matrix(1, 0, 0, 1, 0, 0)" filter="url(#fastright)">
    <path id="fastright-2" data-name="fastright" d="M20.7,16.4a2.067,2.067,0,0,1,.667,1.563,2.18,2.18,0,0,1-.667,1.6L4.864,35.3a2.2,2.2,0,0,1-1.616.667A2.2,2.2,0,0,1,1.632,35.3L.684,34.35a2.067,2.067,0,0,1-.667-1.563,2.18,2.18,0,0,1,.667-1.6L13.995,17.983.684,4.777a2.18,2.18,0,0,1-.667-1.6,2.18,2.18,0,0,1,.667-1.6L1.632.668A2.2,2.2,0,0,1,3.248,0,2.2,2.2,0,0,1,4.864.668ZM15.3,34.349a2.067,2.067,0,0,1-.667-1.563,2.18,2.18,0,0,1,.667-1.6L28.606,17.982,15.295,4.776a2.18,2.18,0,0,1-.667-1.6,2.18,2.18,0,0,1,.667-1.6l.948-.913a2.248,2.248,0,0,1,3.2,0L35.314,16.4a2.067,2.067,0,0,1,.667,1.563,2.18,2.18,0,0,1-.667,1.6L19.439,35.3a2.248,2.248,0,0,1-3.2,0Z" transform="translate(8.98 6)" fill="#4a9c45"/>
  </g>
</svg>
